# xmcd
#
# Track frame offsets: 
#        150
#        16902
#        35973
#        52592
#        70302
#        89139
#        106669
#        121839
#        136752
#        151319
#        172668
#
# Disc length: 2805 seconds
#
# Revision: 0
# Processed by: cddbd v1.5.2PL0 Copyright (c) Steve Scherf et al.
# Submitted via: ExactAudioCopy v1.0b3
#
DISCID=810af30b
DTITLE=Small Town Pistols - Small Town Pistols
DYEAR=2013
DGENRE=Country
TTITLE0=Colour Blind
TTITLE1=Blame It On the Radio
TTITLE2=Love Is Gonna Find You
TTITLE3=Easy as Breathing
TTITLE4=Living on the Outside
TTITLE5=Anthem of a Runaway
TTITLE6=Friends
TTITLE7=It's You
TTITLE8=Walk Tall
TTITLE9=Peter Pan
TTITLE10=Mountain's Daughter
EXTD=
EXTT0=
EXTT1=
EXTT2=
EXTT3=
EXTT4=
EXTT5=
EXTT6=
EXTT7=
EXTT8=
EXTT9=
EXTT10=
PLAYORDER=
